<svg width="65" height="64" viewBox="0 0 65 64" fill="none" xmlns="http://www.w3.org/2000/svg">
<path fill-rule="evenodd" clip-rule="evenodd" d="M25.4935 48.1298C25.501 49.1085 24.9172 49.9951 24.0151 50.3748C23.1131 50.7545 22.071 50.5525 21.3763 49.8631C20.6816 49.1737 20.4715 48.1332 20.8443 47.2282C21.2171 46.3233 22.0991 45.7327 23.0778 45.7327C24.4065 45.7283 25.4876 46.8011 25.4935 48.1298V48.1298Z" stroke="#6B6565" stroke-width="3.96887" stroke-linecap="round" stroke-linejoin="round"/>
<path fill-rule="evenodd" clip-rule="evenodd" d="M39.9876 48.1296C39.9951 49.1083 39.4113 49.9948 38.5093 50.3746C37.6072 50.7543 36.5652 50.5522 35.8704 49.8628C35.1757 49.1734 34.9656 48.133 35.3384 47.228C35.7112 46.323 36.5932 45.7325 37.5719 45.7324C38.9007 45.728 39.9818 46.8009 39.9876 48.1296V48.1296Z" stroke="#6B6565" stroke-width="3.96887" stroke-linecap="round" stroke-linejoin="round"/>
<path d="M19.5103 18.4289V16.4445C18.984 16.4445 18.4792 16.6536 18.1071 17.0257C17.7349 17.3979 17.5258 17.9026 17.5258 18.4289H19.5103ZM46.6913 18.4289V20.4134V18.4289ZM53.0652 20.7573L55.0335 20.5043C55.0294 20.4729 55.0246 20.4416 55.0191 20.4104L53.0652 20.7573ZM52.8562 22.4506L51.0085 21.7267C50.9972 21.7556 50.9865 21.7848 50.9766 21.8143L52.8562 22.4506ZM51.1443 27.5069L52.9849 28.2486C52.9989 28.2139 53.0119 28.1787 53.0239 28.1433L51.1443 27.5069ZM48.0407 35.209L49.8129 36.102C49.8378 36.0525 49.8606 36.0021 49.8813 35.9507L48.0407 35.209ZM41.598 40.8024V42.7868V40.8024ZM25.953 40.8024V38.818L25.9448 38.818L25.953 40.8024ZM21.4073 38.9409L20.0096 40.3496H20.0096L21.4073 38.9409ZM19.5103 34.41H17.5258L17.5258 34.4173L19.5103 34.41ZM17.5261 18.4291C17.5261 19.5251 18.4145 20.4136 19.5105 20.4136C20.6065 20.4136 21.4949 19.5251 21.4949 18.4291H17.5261ZM19.5105 12.4257H21.4949C21.4949 12.4191 21.4949 12.4126 21.4948 12.406L19.5105 12.4257ZM17.8992 10.8381V12.8226L17.9091 12.8226L17.8992 10.8381ZM14.2188 8.8537C13.1228 8.8537 12.2343 9.74217 12.2343 10.8381C12.2343 11.9341 13.1228 12.8226 14.2188 12.8226V8.8537ZM19.5103 20.4134H46.6913V16.4445H19.5103V20.4134ZM46.6913 20.4134C48.4962 20.4134 49.6312 20.3625 50.4779 20.5555C50.8387 20.6378 50.9548 20.7305 50.9805 20.7544C50.9921 20.7652 51.007 20.7812 51.0262 20.8186C51.0473 20.8596 51.0833 20.9462 51.1113 21.1042L55.0191 20.4104C54.8413 19.4091 54.4125 18.5245 53.6797 17.8447C52.9728 17.189 52.1309 16.8617 51.3602 16.686C49.944 16.3631 48.1223 16.4445 46.6913 16.4445V20.4134ZM51.097 21.0102C51.1281 21.2527 51.0977 21.4991 51.0085 21.7267L54.7038 23.1746C55.0362 22.3263 55.1496 21.408 55.0335 20.5043L51.097 21.0102ZM50.9766 21.8143L49.2647 26.8705L53.0239 28.1433L54.7358 23.087L50.9766 21.8143ZM49.3037 26.7652L46.2001 34.4673L49.8813 35.9507L52.9849 28.2486L49.3037 26.7652ZM46.2685 34.3161C45.6572 35.5294 45.2045 36.4179 44.8035 37.1019C44.4012 37.7879 44.1213 38.1425 43.9005 38.3468C43.6166 38.6094 43.2749 38.818 41.598 38.818V42.7868C43.4798 42.7868 45.1516 42.5959 46.5955 41.2604C47.2385 40.6656 47.751 39.9215 48.2272 39.1093C48.7046 38.2951 49.2164 37.2858 49.8129 36.102L46.2685 34.3161ZM41.598 38.818H25.953V42.7868H41.598V38.818ZM25.9448 38.818C24.7691 38.8228 23.6396 38.3603 22.805 37.5322L20.0096 40.3496C21.5916 41.9193 23.7326 42.796 25.9612 42.7868L25.9448 38.818ZM22.805 37.5322C21.9704 36.7041 21.499 35.5783 21.4947 34.4026L17.5258 34.4173C17.5341 36.6459 18.4276 38.7799 20.0096 40.3496L22.805 37.5322ZM21.4947 34.41V18.4289H17.5258V34.41H21.4947ZM21.4949 18.4291V12.4257H17.5261V18.4291H21.4949ZM21.4948 12.406C21.4753 10.4315 19.8639 8.84386 17.8892 8.85373L17.9091 12.8226C17.6994 12.8236 17.5282 12.655 17.5262 12.4453L21.4948 12.406ZM17.8992 8.8537H14.2188V12.8226H17.8992V8.8537Z" fill="#6B6565"/>
<circle cx="55.2304" cy="6.86981" r="6.61468" fill="#FF5252"/>
</svg>
