<svg width="24" height="24" viewBox="0 0 24 24" fill="none" xmlns="http://www.w3.org/2000/svg">
<path d="M11.6176 0.336182C5.22462 0.336182 0.0419922 5.51881 0.0419922 11.9118C0.0419922 17.3403 3.77953 21.8955 8.8214 23.1466V15.4493H6.43451V11.9118H8.8214V10.3875C8.8214 6.44764 10.6045 4.62147 14.4726 4.62147C15.206 4.62147 16.4715 4.76547 16.9891 4.90901V8.11545C16.716 8.08675 16.2414 8.07239 15.6519 8.07239C13.754 8.07239 13.0206 8.79147 13.0206 10.6607V11.9118H16.8016L16.152 15.4493H13.0206V23.4027C18.7523 22.7104 23.1937 17.8302 23.1937 11.9118C23.1932 5.51881 18.0106 0.336182 11.6176 0.336182Z" fill="white"/>
</svg>
