<svg width="24" height="24" viewBox="0 0 24 24" fill="none" xmlns="http://www.w3.org/2000/svg">
<g clip-path="url(#clip0_23_420)">
<path d="M11.6178 2.51266C14.7108 2.51266 15.077 2.52622 16.2934 2.58048C17.4238 2.63022 18.0343 2.82014 18.4412 2.9784C18.9793 3.18641 19.3682 3.43963 19.7707 3.84207C20.1776 4.24903 20.4263 4.63339 20.6343 5.17148C20.7926 5.57844 20.9825 6.19341 21.0322 7.31934C21.0865 8.54023 21.1001 8.9065 21.1001 11.9949C21.1001 15.0878 21.0865 15.4541 21.0322 16.6705C20.9825 17.8009 20.7926 18.4114 20.6343 18.8183C20.4263 19.3564 20.1731 19.7453 19.7707 20.1477C19.3637 20.5547 18.9793 20.8034 18.4412 21.0114C18.0343 21.1697 17.4193 21.3596 16.2934 21.4093C15.0725 21.4636 14.7062 21.4771 11.6178 21.4771C8.52491 21.4771 8.15865 21.4636 6.94228 21.4093C5.81183 21.3596 5.20138 21.1697 4.79442 21.0114C4.25632 20.8034 3.86745 20.5502 3.465 20.1477C3.05804 19.7408 2.80934 19.3564 2.60134 18.8183C2.44307 18.4114 2.25316 17.7964 2.20342 16.6705C2.14916 15.4496 2.13559 15.0833 2.13559 11.9949C2.13559 8.90198 2.14916 8.53571 2.20342 7.31934C2.25316 6.18889 2.44307 5.57844 2.60134 5.17148C2.80934 4.63339 3.06256 4.24451 3.465 3.84207C3.87197 3.43511 4.25632 3.18641 4.79442 2.9784C5.20138 2.82014 5.81635 2.63022 6.94228 2.58048C8.15865 2.52622 8.52491 2.51266 11.6178 2.51266ZM11.6178 0.428101C8.47517 0.428101 8.08177 0.441666 6.84732 0.495928C5.61739 0.55019 4.77181 0.749149 4.03927 1.03402C3.27509 1.33246 2.62847 1.72586 1.98637 2.37248C1.33975 3.01458 0.946355 3.6612 0.647915 4.42086C0.363041 5.15792 0.164081 5.99897 0.109819 7.22891C0.0555576 8.46788 0.0419922 8.86128 0.0419922 12.0039C0.0419922 15.1466 0.0555576 15.54 0.109819 16.7745C0.164081 18.0044 0.363041 18.85 0.647915 19.5825C0.946355 20.3467 1.33975 20.9933 1.98637 21.6354C2.62847 22.2775 3.27509 22.6754 4.03475 22.9693C4.77181 23.2542 5.61286 23.4532 6.8428 23.5074C8.07725 23.5617 8.47065 23.5753 11.6133 23.5753C14.756 23.5753 15.1494 23.5617 16.3838 23.5074C17.6138 23.4532 18.4593 23.2542 19.1919 22.9693C19.9515 22.6754 20.5982 22.2775 21.2402 21.6354C21.8823 20.9933 22.2803 20.3467 22.5742 19.587C22.8591 18.85 23.058 18.0089 23.1123 16.779C23.1665 15.5445 23.1801 15.1511 23.1801 12.0085C23.1801 8.8658 23.1665 8.47241 23.1123 7.23795C23.058 6.00802 22.8591 5.16244 22.5742 4.4299C22.2893 3.6612 21.8959 3.01458 21.2493 2.37248C20.6072 1.73038 19.9606 1.33246 19.2009 1.03855C18.4639 0.753671 17.6228 0.554711 16.3929 0.50045C15.1539 0.441666 14.7605 0.428101 11.6178 0.428101Z" fill="white"/>
<path d="M11.6181 6.05786C8.33522 6.05786 5.67188 8.72121 5.67188 12.004C5.67188 15.2869 8.33522 17.9502 11.6181 17.9502C14.9009 17.9502 17.5642 15.2869 17.5642 12.004C17.5642 8.72121 14.9009 6.05786 11.6181 6.05786ZM11.6181 15.8611C9.48828 15.8611 7.76095 14.1338 7.76095 12.004C7.76095 9.87427 9.48828 8.14694 11.6181 8.14694C13.7478 8.14694 15.4752 9.87427 15.4752 12.004C15.4752 14.1338 13.7478 15.8611 11.6181 15.8611Z" fill="white"/>
<path d="M19.1875 5.82265C19.1875 6.59136 18.5635 7.21084 17.7993 7.21084C17.0306 7.21084 16.4111 6.58683 16.4111 5.82265C16.4111 5.05394 17.0351 4.43445 17.7993 4.43445C18.5635 4.43445 19.1875 5.05846 19.1875 5.82265Z" fill="white"/>
</g>
<defs>
<clipPath id="clip0_23_420">
<rect width="23.1517" height="23.1517" fill="white" transform="translate(0.0419922 0.428101)"/>
</clipPath>
</defs>
</svg>
