<svg width="54" height="56" viewBox="0 0 54 56" fill="none" xmlns="http://www.w3.org/2000/svg">
<path fill-rule="evenodd" clip-rule="evenodd" d="M52.4283 48.2697C52.3173 44.9766 49.5771 42.3861 46.283 42.46C42.9889 42.534 40.3678 45.245 40.4048 48.5398C40.4418 51.8345 43.1233 54.4859 46.4182 54.4858C49.7937 54.4274 52.4837 51.6453 52.4283 48.2697Z" stroke="#6B6565" stroke-width="3.03914" stroke-linecap="round" stroke-linejoin="round"/>
<path fill-rule="evenodd" clip-rule="evenodd" d="M31.3891 29.6213C31.4721 34.686 27.4351 38.8598 22.3704 38.9454C17.3071 38.8579 13.2722 34.6846 13.3553 29.6213C13.2722 24.5579 17.3071 20.3847 22.3704 20.2971C27.4351 20.3827 31.4721 24.5565 31.3891 29.6213Z" stroke="#6B6565" stroke-width="3.03914" stroke-linecap="round" stroke-linejoin="round"/>
<path fill-rule="evenodd" clip-rule="evenodd" d="M49.423 10.9728C49.476 13.1554 48.3419 15.1954 46.46 16.3023C44.5781 17.4093 42.2441 17.4093 40.3622 16.3023C38.4803 15.1954 37.3462 13.1554 37.3992 10.9728C37.3462 8.79009 38.4803 6.75013 40.3622 5.64319C42.2441 4.53625 44.5781 4.53625 46.46 5.64319C48.3419 6.75013 49.476 8.79009 49.423 10.9728Z" stroke="#6B6565" stroke-width="3.03914" stroke-linecap="round" stroke-linejoin="round"/>
<path d="M41.0283 45.3961C41.7129 45.8814 42.6614 45.7198 43.1467 45.0351C43.6321 44.3505 43.4705 43.402 42.7858 42.9167L41.0283 45.3961ZM30.3536 34.104C29.669 33.6187 28.7205 33.7803 28.2352 34.465C27.7498 35.1496 27.9114 36.0981 28.5961 36.5834L30.3536 34.104ZM39.9265 16.206C40.5392 15.6325 40.5709 14.6709 39.9973 14.0582C39.4238 13.4455 38.4622 13.4138 37.8495 13.9873L39.9265 16.206ZM28.4508 22.7858C27.8381 23.3593 27.8064 24.3209 28.3799 24.9336C28.9535 25.5463 29.9151 25.578 30.5278 25.0045L28.4508 22.7858ZM42.7858 42.9167L30.3536 34.104L28.5961 36.5834L41.0283 45.3961L42.7858 42.9167ZM37.8495 13.9873L28.4508 22.7858L30.5278 25.0045L39.9265 16.206L37.8495 13.9873Z" fill="#6B6565"/>
</svg>
