<svg width="22" height="22" viewBox="0 0 22 22" fill="none" xmlns="http://www.w3.org/2000/svg">
<path fill-rule="evenodd" clip-rule="evenodd" d="M14.1816 5.93955L11.3999 0.651367L8.61814 5.93955C8.42162 6.32599 8.13718 6.66094 7.78768 6.91746C7.43647 7.17529 7.03008 7.34784 6.60066 7.42145L0.868652 8.54529L4.87052 13.331C5.41781 13.9308 5.67605 14.7396 5.57762 15.5456L4.81636 21.7139L10.094 19.1563C10.5012 18.9591 10.9475 18.8562 11.3999 18.8554C11.8243 18.8567 12.2423 18.9599 12.6185 19.1563L18.0195 21.5559L17.2583 15.4613C17.1621 14.6571 17.4207 13.8509 17.9669 13.2528L21.9311 8.54529L16.1991 7.42145C15.7692 7.34806 15.3622 7.1755 15.0106 6.91746C14.6617 6.66076 14.3777 6.32583 14.1816 5.93955Z" fill="#FFD470"/>
</svg>
