<svg width="24" height="20" viewBox="0 0 24 20" fill="none" xmlns="http://www.w3.org/2000/svg">
<path d="M11.2835 5.77261L11.3336 6.60014L10.4972 6.49881C7.45266 6.11038 4.79285 4.79309 2.53452 2.58072L1.43045 1.48298L1.14606 2.29362C0.543843 4.10067 0.928596 6.00905 2.18322 7.29256C2.85236 8.00187 2.7018 8.1032 1.54755 7.681C1.14606 7.54589 0.794769 7.44456 0.761312 7.49522C0.644213 7.61344 1.04569 9.15028 1.36353 9.75826C1.79847 10.6027 2.68507 11.4302 3.65532 11.92L4.47501 12.3084L3.50476 12.3253C2.56798 12.3253 2.53452 12.3422 2.63489 12.6968C2.96946 13.7946 4.291 14.9599 5.76309 15.4665L6.80025 15.8212L5.89692 16.3616C4.55865 17.1385 2.98618 17.5776 1.41372 17.6113C0.660942 17.6282 0.0419922 17.6958 0.0419922 17.7464C0.0419922 17.9153 2.08285 18.8611 3.27057 19.2326C6.83371 20.3304 11.066 19.8575 14.2444 17.9829C16.5027 16.6487 18.761 13.9972 19.8149 11.4302C20.3837 10.0623 20.9525 7.56278 20.9525 6.36371C20.9525 5.58684 21.0026 5.48551 21.9394 4.55665C22.4915 4.01623 23.01 3.42513 23.1104 3.25625C23.2777 2.93537 23.261 2.93537 22.4078 3.22247C20.9859 3.72912 20.7852 3.66157 21.4878 2.9016C22.0063 2.36117 22.6253 1.38165 22.6253 1.09454C22.6253 1.04388 22.3744 1.12832 22.09 1.28032C21.7889 1.4492 21.1197 1.70252 20.6179 1.85452L19.7146 2.14162L18.8949 1.58431C18.4432 1.28032 17.8075 0.942548 17.4729 0.841218C16.6198 0.604782 15.315 0.638558 14.5455 0.908772C12.4544 1.66875 11.1329 3.62779 11.2835 5.77261Z" fill="white"/>
</svg>
