<svg width="34" height="42" viewBox="0 0 34 42" fill="none" xmlns="http://www.w3.org/2000/svg">
<path fill-rule="evenodd" clip-rule="evenodd" d="M24.0406 9.76028C24.0406 13.7788 20.7829 17.0364 16.7644 17.0364C12.7459 17.0364 9.48828 13.7788 9.48828 9.76028C9.48828 5.74177 12.7459 2.48413 16.7644 2.48413C20.7829 2.48413 24.0406 5.74177 24.0406 9.76028Z" stroke="#6B6565" stroke-width="3.96887" stroke-linecap="round" stroke-linejoin="round"/>
<path d="M4.19622 30.8847C4.16371 29.7892 3.24929 28.9275 2.1538 28.96C1.05831 28.9925 0.196589 29.907 0.229097 31.0024L4.19622 30.8847ZM11.1689 39.3945V37.4101C11.1502 37.4101 11.1314 37.4103 11.1126 37.4109L11.1689 39.3945ZM22.361 39.3945L22.4173 37.4109C22.3985 37.4103 22.3797 37.4101 22.361 37.4101V39.3945ZM33.3008 31.0024C33.3333 29.907 32.4716 28.9925 31.3761 28.96C30.2806 28.9275 29.3662 29.7892 29.3337 30.8847L33.3008 31.0024ZM29.3334 30.6188C29.3659 31.7143 30.2804 32.576 31.3759 32.5435C32.4713 32.511 33.3331 31.5966 33.3006 30.5011L29.3334 30.6188ZM22.3607 22.109V24.0935C22.3795 24.0935 22.3983 24.0932 22.417 24.0927L22.3607 22.109ZM11.1687 22.109L11.1124 24.0927C11.1311 24.0932 11.1499 24.0935 11.1687 24.0935V22.109ZM0.22884 30.5011C0.196333 31.5966 1.05805 32.511 2.15354 32.5435C3.24903 32.576 4.16346 31.7143 4.19596 30.6188L0.22884 30.5011ZM0.229097 31.0024C0.404174 36.9024 5.32504 41.5456 11.2252 41.3781L11.1126 37.4109C7.40148 37.5162 4.30634 34.5957 4.19622 30.8847L0.229097 31.0024ZM11.1689 41.3789H22.361V37.4101H11.1689V41.3789ZM22.3047 41.3781C28.2049 41.5456 33.1257 36.9024 33.3008 31.0024L29.3337 30.8847C29.2236 34.5957 26.1284 37.5162 22.4173 37.4109L22.3047 41.3781ZM33.3006 30.5011C33.1255 24.6011 28.2046 19.9579 22.3044 20.1254L22.417 24.0927C26.1282 23.9873 29.2233 26.9078 29.3334 30.6188L33.3006 30.5011ZM22.3607 20.1246H11.1687V24.0935H22.3607V20.1246ZM11.225 20.1254C5.32478 19.9579 0.403917 24.6011 0.22884 30.5011L4.19596 30.6188C4.30608 26.9078 7.40123 23.9873 11.1124 24.0927L11.225 20.1254Z" fill="#6B6565"/>
</svg>
