<svg width="24" height="24" viewBox="0 0 24 24" fill="none" xmlns="http://www.w3.org/2000/svg">
<g clip-path="url(#clip0_23_421)">
<path d="M22.9631 7.53676C22.9631 7.53676 22.737 5.94056 22.0406 5.23968C21.1589 4.31723 20.1731 4.31271 19.7209 4.25845C16.4833 4.02332 11.6224 4.02332 11.6224 4.02332H11.6133C11.6133 4.02332 6.75236 4.02332 3.51474 4.25845C3.06256 4.31271 2.07681 4.31723 1.19505 5.23968C0.498695 5.94056 0.277126 7.53676 0.277126 7.53676C0.277126 7.53676 0.0419922 9.41332 0.0419922 11.2853V13.0398C0.0419922 14.9118 0.272605 16.7884 0.272605 16.7884C0.272605 16.7884 0.498695 18.3846 1.19053 19.0855C2.07229 20.0079 3.22987 19.9763 3.74536 20.0758C5.5993 20.2521 11.6178 20.3064 11.6178 20.3064C11.6178 20.3064 16.4833 20.2973 19.7209 20.0667C20.1731 20.0124 21.1589 20.0079 22.0406 19.0855C22.737 18.3846 22.9631 16.7884 22.9631 16.7884C22.9631 16.7884 23.1937 14.9164 23.1937 13.0398V11.2853C23.1937 9.41332 22.9631 7.53676 22.9631 7.53676ZM9.22579 15.1696V8.66269L15.4795 11.9274L9.22579 15.1696Z" fill="white"/>
</g>
<defs>
<clipPath id="clip0_23_421">
<rect width="23.1517" height="23.1517" fill="white" transform="translate(0.0419922 0.591064)"/>
</clipPath>
</defs>
</svg>
